<svg width="16" height="14" viewBox="0 0 16 14" fill="none" xmlns="http://www.w3.org/2000/svg">
<path d="M13.9064 6.25763C13.9064 4.68641 13.2822 3.17954 12.1712 2.06852C11.0602 0.957494 9.55333 0.333328 7.9821 0.333328C6.41088 0.333328 4.90401 0.957494 3.79299 2.06852C2.68197 3.17954 2.0578 4.68641 2.0578 6.25763H2.65023C2.65023 4.84353 3.21198 3.48735 4.2119 2.48743C5.21182 1.48751 6.568 0.925758 7.9821 0.925758C9.3962 0.925758 10.7524 1.48751 11.7523 2.48743C12.7522 3.48735 13.314 4.84353 13.314 6.25763H13.9064Z" fill="#FFF613" fill-opacity="0.6"/>
<path d="M2.0578 7.35027C2.0578 8.12826 2.21104 8.89863 2.50876 9.6174C2.80648 10.3362 3.24287 10.9893 3.79299 11.5394C4.34311 12.0895 4.9962 12.5259 5.71497 12.8236C6.43374 13.1213 7.20411 13.2746 7.9821 13.2746V12.6821C7.28191 12.6821 6.58858 12.5442 5.94168 12.2763C5.29479 12.0083 4.70701 11.6156 4.2119 11.1205C3.71679 10.6254 3.32405 10.0376 3.0561 9.39069C2.78814 8.74379 2.65023 8.05046 2.65023 7.35027H2.0578Z" fill="#FFF613" fill-opacity="0.6"/>
<path d="M2.47302 4.68687C2.86517 4.68687 3.18307 5.00478 3.18307 5.39693V8.69771C3.18307 9.08986 2.86517 9.40776 2.47302 9.40776V4.68687Z" fill="#FFF613" fill-opacity="0.6"/>
<path d="M2.7204 9.40776C1.9925 9.40776 1.40243 8.81768 1.40243 8.08979L1.40243 6.00484C1.40243 5.27695 1.9925 4.68687 2.7204 4.68687L2.7204 9.40776Z" fill="#FFF613" fill-opacity="0.6"/>
<path d="M1.43866 8.28528C1.15042 8.28528 0.916753 8.05161 0.916753 7.76337L0.916753 6.33127C0.916753 6.04303 1.15042 5.80936 1.43866 5.80936L1.43866 8.28528Z" fill="#FFF613" fill-opacity="0.6"/>
<path d="M13.4912 9.40776C13.0991 9.40776 12.7812 9.08986 12.7812 8.69771V5.39693C12.7812 5.00477 13.0991 4.68687 13.4912 4.68687V9.40776Z" fill="#FFF613" fill-opacity="0.6"/>
<path d="M13.2438 4.68687C13.9717 4.68687 14.5618 5.27695 14.5618 6.00485L14.5618 8.08979C14.5618 8.81769 13.9717 9.40776 13.2438 9.40776L13.2438 4.68687Z" fill="#FFF613" fill-opacity="0.6"/>
<path d="M14.5256 5.80936C14.8138 5.80936 15.0475 6.04302 15.0475 6.33127L15.0475 7.76336C15.0475 8.0516 14.8138 8.28527 14.5256 8.28527L14.5256 5.80936Z" fill="#FFF613" fill-opacity="0.6"/>
<circle cx="7.99002" cy="13.0318" r="0.634857" fill="#FFF613" fill-opacity="0.6"/>
<path fill-rule="evenodd" clip-rule="evenodd" d="M7.99009 10.0622C10.0913 10.0622 11.7947 8.35885 11.7947 6.25762C11.7947 4.1564 10.0913 2.45302 7.99009 2.45302C5.88887 2.45302 4.18549 4.1564 4.18549 6.25762C4.18549 8.35885 5.88887 10.0622 7.99009 10.0622ZM7.99038 6.80247C8.29129 6.80247 8.53522 6.55853 8.53522 6.25762C8.53522 5.95672 8.29129 5.71278 7.99038 5.71278C7.68947 5.71278 7.44554 5.95672 7.44554 6.25762C7.44554 6.55853 7.68947 6.80247 7.99038 6.80247ZM6.72179 6.25762C6.72179 6.55853 6.47785 6.80247 6.17694 6.80247C5.87603 6.80247 5.6321 6.55853 5.6321 6.25762C5.6321 5.95672 5.87603 5.71278 6.17694 5.71278C6.47785 5.71278 6.72179 5.95672 6.72179 6.25762ZM9.80369 6.80247C10.1046 6.80247 10.3485 6.55853 10.3485 6.25762C10.3485 5.95672 10.1046 5.71278 9.80369 5.71278C9.50279 5.71278 9.25885 5.95672 9.25885 6.25762C9.25885 6.55853 9.50279 6.80247 9.80369 6.80247Z" fill="#FFF613" fill-opacity="0.6"/>
</svg>
