<svg width="16" height="14" viewBox="0 0 16 14" fill="none" xmlns="http://www.w3.org/2000/svg">
<path fill-rule="evenodd" clip-rule="evenodd" d="M13.0508 6.60873C13.0508 7.17563 12.9756 7.72497 12.8347 8.24733L10.2184 7.52727C9.46988 7.32126 8.85227 8.13287 9.25037 8.79941L10.8119 11.4139C9.72072 12.3314 8.3126 12.8841 6.77539 12.8841C3.30959 12.8841 0.5 10.0745 0.5 6.60873C0.5 3.14293 3.30959 0.333344 6.77539 0.333344C10.2412 0.333344 13.0508 3.14293 13.0508 6.60873ZM10.047 8.15013L12.634 8.86214C12.3302 9.65164 11.8713 10.3642 11.2948 10.9626L9.80499 8.46816C9.70547 8.30153 9.85987 8.09862 10.047 8.15013ZM6.22762 4.21073C6.36544 4.34165 6.54805 4.40711 6.77544 4.40711C7.00284 4.40711 7.18545 4.34165 7.32326 4.21073C7.46108 4.07291 7.52999 3.90064 7.52999 3.69391C7.52999 3.49408 7.46108 3.3287 7.32326 3.19778C7.18545 3.06685 7.00284 3.00139 6.77544 3.00139C6.54805 3.00139 6.36544 3.06685 6.22762 3.19778C6.08981 3.32181 6.0209 3.48719 6.0209 3.69391C6.0209 3.90064 6.08981 4.07291 6.22762 4.21073ZM5.95888 9.53389H5.31803V10.2161H8.23285V9.53389H7.592C7.51621 9.53389 7.45419 9.51322 7.40595 9.47187C7.36461 9.42364 7.34394 9.36162 7.34394 9.28582V5.2857H5.31803V5.96789H5.95888C6.03468 5.96789 6.09325 5.992 6.1346 6.04024C6.18283 6.08159 6.20695 6.14016 6.20695 6.21596V9.28582C6.20695 9.36162 6.18283 9.42364 6.1346 9.47187C6.09325 9.51322 6.03468 9.53389 5.95888 9.53389Z" fill="#FFF613" fill-opacity="0.6"/>
<path d="M12.847 13.5616L9.80492 8.46815C9.7054 8.30152 9.8598 8.09862 10.0469 8.15012L15.5778 9.67233C15.7618 9.72298 15.7938 9.97027 15.6288 10.0661L13.6878 11.1938C13.6317 11.2263 13.5934 11.2824 13.5832 11.3463L13.2446 13.4849C13.2131 13.6837 12.9502 13.7344 12.847 13.5616Z" fill="#FFF613" fill-opacity="0.6"/>
</svg>
