<svg width="18" height="14" viewBox="0 0 18 14" fill="none" xmlns="http://www.w3.org/2000/svg">
<path fill-rule="evenodd" clip-rule="evenodd" d="M0.699868 1.05334C0.778104 0.895122 0.969791 0.830281 1.12801 0.908516L3.09095 1.87913C3.24917 1.95736 3.31401 2.14905 3.23578 2.30727C3.15754 2.46549 2.96585 2.53034 2.80763 2.4521L0.844696 1.48149C0.686474 1.40325 0.621632 1.21157 0.699868 1.05334Z" fill="#FFF613" fill-opacity="0.6"/>
<path fill-rule="evenodd" clip-rule="evenodd" d="M17.0451 1.05334C16.9669 0.895122 16.7752 0.830281 16.617 0.908516L14.654 1.87913C14.4958 1.95736 14.431 2.14905 14.5092 2.30727C14.5875 2.46549 14.7791 2.53034 14.9374 2.4521L16.9003 1.48149C17.0585 1.40325 17.1234 1.21157 17.0451 1.05334Z" fill="#FFF613" fill-opacity="0.6"/>
<path fill-rule="evenodd" clip-rule="evenodd" d="M0.699868 7.40204C0.778104 7.56026 0.969791 7.6251 1.12801 7.54687L3.09095 6.57626C3.24917 6.49802 3.31401 6.30633 3.23578 6.14811C3.15754 5.98989 2.96585 5.92505 2.80763 6.00328L0.844696 6.97389C0.686474 7.05213 0.621632 7.24382 0.699868 7.40204Z" fill="#FFF613" fill-opacity="0.6"/>
<path fill-rule="evenodd" clip-rule="evenodd" d="M17.0451 7.40204C16.9669 7.56026 16.7752 7.6251 16.617 7.54687L14.654 6.57626C14.4958 6.49802 14.431 6.30633 14.5092 6.14811C14.5875 5.98989 14.7791 5.92505 14.9374 6.00328L16.9003 6.97389C17.0585 7.05213 17.1234 7.24382 17.0451 7.40204Z" fill="#FFF613" fill-opacity="0.6"/>
<path fill-rule="evenodd" clip-rule="evenodd" d="M0.666687 4.22769C0.666687 4.05118 0.809775 3.9081 0.986283 3.9081H2.94922C3.12573 3.9081 3.26882 4.05118 3.26882 4.22769C3.26882 4.4042 3.12573 4.54729 2.94922 4.54729H0.986283C0.809775 4.54729 0.666687 4.4042 0.666687 4.22769Z" fill="#FFF613" fill-opacity="0.6"/>
<path fill-rule="evenodd" clip-rule="evenodd" d="M17.0779 4.22769C17.0779 4.05118 16.9348 3.9081 16.7583 3.9081H14.7953C14.6188 3.9081 14.4758 4.05118 14.4758 4.22769C14.4758 4.4042 14.6188 4.54729 14.7953 4.54729H16.7583C16.9348 4.54729 17.0779 4.4042 17.0779 4.22769Z" fill="#FFF613" fill-opacity="0.6"/>
<path d="M3.15649 13.25C3.15649 11.98 4.18604 10.9504 5.45605 10.9504H12.2878C13.5578 10.9504 14.5874 11.98 14.5874 13.25H3.15649Z" fill="#FFF613" fill-opacity="0.6"/>
<path fill-rule="evenodd" clip-rule="evenodd" d="M13.2701 5.1479L13.27 5.18612V10.3331H4.47418V5.10507H4.47455C4.49754 2.6959 6.45765 0.75 8.87225 0.75C11.2868 0.75 13.247 2.6959 13.2699 5.10507H13.27V5.10968L13.2701 5.1479ZM6.05404 5.73976C6.07066 3.51097 7.38229 1.67868 9.07198 1.4168C8.93523 1.3956 8.796 1.38469 8.65478 1.38469C6.76869 1.38469 5.2376 3.33059 5.21964 5.73976H6.05404ZM5.21948 5.73976H6.05397V9.39219H5.21948V5.73976Z" fill="#FFF613" fill-opacity="0.6"/>
</svg>
