<svg width="45" height="32" viewBox="0 0 45 32" fill="none" xmlns="http://www.w3.org/2000/svg">
<path d="M44.3077 27.0769C44.3077 29.7957 42.1034 32 39.3846 32H4.92308C2.20431 32 0 29.7957 0 27.0769V4.92308C0 2.20431 2.20431 0 4.92308 0H39.3846C42.1034 0 44.3077 2.20431 44.3077 4.92308V27.0769Z" fill="#CCD6DD"/>
<path d="M14.7077 15.5523L0.784005 29.476C0.750775 29.5105 0.738467 29.5536 0.710159 29.588C1.12862 30.2896 1.71201 30.8717 2.41354 31.2914C2.44924 31.2631 2.49108 31.2508 2.52431 31.2176L16.4492 17.2926C16.9292 16.8114 16.9292 16.0336 16.4492 15.5523C15.9668 15.0711 15.1889 15.0711 14.7077 15.5523ZM43.5975 29.588C43.5717 29.5536 43.5569 29.5105 43.5237 29.4773L29.6012 15.5523C29.1188 15.0711 28.3409 15.0711 27.8597 15.5523C27.3785 16.0348 27.3785 16.8126 27.8597 17.2926L41.7834 31.2176C41.8154 31.2496 41.8597 31.2631 41.8942 31.2914C42.5969 30.8729 43.1791 30.2896 43.5975 29.588Z" fill="#99AAB5"/>
<path d="M39.3846 0H4.92308C2.20431 0 0 2.20431 0 4.92308V6.19077L17.8806 24.032C20.2117 26.3618 24.0197 26.3618 26.3532 24.032L44.3077 6.16492V4.92308C44.3077 2.20431 42.1034 0 39.3846 0Z" fill="#99AAB5"/>
<path d="M39.3846 0H4.92307C2.96861 0 1.29354 1.14954 0.498459 2.8L18.672 20.9748C20.5945 22.8972 23.7132 22.8972 25.6345 20.9748L43.8092 2.8C43.0142 1.14954 41.3403 0 39.3846 0Z" fill="#E1E8ED"/>
</svg>
