<svg width="37" height="32" viewBox="0 0 37 32" fill="none" xmlns="http://www.w3.org/2000/svg">
<path fill-rule="evenodd" clip-rule="evenodd" d="M30.1219 15.0609C30.1219 16.4215 29.9415 17.7399 29.6033 18.9936L23.3242 17.2654C21.5277 16.771 20.0455 18.7189 21.0009 20.3186L24.7485 26.5932C22.1297 28.7953 18.7502 30.1219 15.0609 30.1219C6.74301 30.1219 0 23.3789 0 15.0609C0 6.74301 6.74301 0 15.0609 0C23.3789 0 30.1219 6.74301 30.1219 15.0609ZM22.9128 18.7603L29.1217 20.4691C28.3925 22.3639 27.2912 24.0741 25.9075 25.5101L22.332 19.5236C22.0931 19.1236 22.4637 18.6367 22.9128 18.7603ZM13.7463 9.30572C14.0771 9.61994 14.5153 9.77705 15.0611 9.77705C15.6068 9.77705 16.0451 9.61994 16.3758 9.30572C16.7066 8.97496 16.872 8.56151 16.872 8.06537C16.872 7.58577 16.7066 7.18886 16.3758 6.87464C16.0451 6.56042 15.6068 6.40331 15.0611 6.40331C14.5153 6.40331 14.0771 6.56042 13.7463 6.87464C13.4155 7.17232 13.2502 7.56923 13.2502 8.06537C13.2502 8.56151 13.4155 8.97496 13.7463 9.30572ZM13.1013 22.0813H11.5633V23.7186H18.5588V22.0813H17.0208C16.8389 22.0813 16.6901 22.0317 16.5743 21.9325C16.4751 21.8167 16.4254 21.6679 16.4254 21.4859V11.8856H11.5633V13.5229H13.1013C13.2832 13.5229 13.4238 13.5808 13.523 13.6966C13.6388 13.7958 13.6967 13.9364 13.6967 14.1183V21.4859C13.6967 21.6679 13.6388 21.8167 13.523 21.9325C13.4238 22.0317 13.2832 22.0813 13.1013 22.0813Z" fill="#099339"/>
<path d="M29.6329 31.7478L22.3319 19.5236C22.093 19.1236 22.4636 18.6367 22.9127 18.7603L36.1867 22.4136C36.6284 22.5351 36.7053 23.1286 36.3092 23.3587L31.6507 26.0651C31.5163 26.1432 31.4241 26.2776 31.3998 26.4312L30.587 31.5637C30.5114 32.0409 29.8806 32.1627 29.6329 31.7478Z" fill="#C2BB05"/>
</svg>
