<svg width="40" height="30" viewBox="0 0 40 30" fill="none" xmlns="http://www.w3.org/2000/svg">
<path fill-rule="evenodd" clip-rule="evenodd" d="M0.0796336 0.728028C0.2674 0.348295 0.727449 0.192675 1.10718 0.380441L5.81823 2.7099C6.19796 2.89767 6.35358 3.35772 6.16582 3.73745C5.97805 4.11719 5.518 4.27281 5.13827 4.08504L0.427221 1.75558C0.0474878 1.56781 -0.108132 1.10776 0.0796336 0.728028Z" fill="#099339"/>
<path fill-rule="evenodd" clip-rule="evenodd" d="M39.3082 0.728026C39.1204 0.348293 38.6604 0.192673 38.2807 0.380439L33.5696 2.7099C33.1899 2.89767 33.0343 3.35772 33.222 3.73745C33.4098 4.11719 33.8698 4.27281 34.2496 4.08504L38.9606 1.75558C39.3404 1.56781 39.496 1.10776 39.3082 0.728026Z" fill="#099339"/>
<path fill-rule="evenodd" clip-rule="evenodd" d="M0.0796336 15.9649C0.2674 16.3446 0.727449 16.5003 1.10718 16.3125L5.81823 13.983C6.19796 13.7953 6.35358 13.3352 6.16582 12.9555C5.97805 12.5757 5.518 12.4201 5.13827 12.6079L0.427221 14.9374C0.0474878 15.1251 -0.108132 15.5852 0.0796336 15.9649Z" fill="#099339"/>
<path fill-rule="evenodd" clip-rule="evenodd" d="M39.3082 15.9649C39.1204 16.3446 38.6604 16.5003 38.2807 16.3125L33.5696 13.983C33.1899 13.7953 33.0343 13.3352 33.222 12.9555C33.4098 12.5757 33.8698 12.4201 34.2496 12.6079L38.9606 14.9374C39.3404 15.1251 39.496 15.5852 39.3082 15.9649Z" fill="#099339"/>
<path fill-rule="evenodd" clip-rule="evenodd" d="M0 8.34646C0 7.92284 0.343411 7.57943 0.767031 7.57943H5.47808C5.9017 7.57943 6.24511 7.92284 6.24511 8.34646C6.24511 8.77008 5.9017 9.11349 5.47808 9.11349H0.767031C0.343411 9.11349 0 8.77008 0 8.34646Z" fill="#099339"/>
<path fill-rule="evenodd" clip-rule="evenodd" d="M39.3869 8.34646C39.3869 7.92284 39.0435 7.57943 38.6199 7.57943H33.9089C33.4852 7.57943 33.1418 7.92284 33.1418 8.34646C33.1418 8.77008 33.4852 9.11349 33.9089 9.11349H38.6199C39.0435 9.11349 39.3869 8.77008 39.3869 8.34646Z" fill="#099339"/>
<path d="M5.97559 28.4811C5.97559 26.2719 7.76645 24.4811 9.97559 24.4811H29.4096C31.6188 24.4811 33.4096 26.2719 33.4096 28.4811V30H5.97559V28.4811Z" fill="#C2BB05"/>
<path fill-rule="evenodd" clip-rule="evenodd" d="M30.2483 10.555C30.2483 10.5857 30.2482 10.6164 30.2479 10.647V22.9995H9.138V10.4522H9.13889C9.19405 4.67016 13.8983 0 19.6934 0C25.4884 0 30.1927 4.67016 30.2478 10.4522H30.2479V10.4629C30.2482 10.4936 30.2483 10.5243 30.2483 10.555ZM12.9297 11.9754C12.9695 6.62634 16.1175 2.22884 20.1727 1.60031C19.8445 1.54944 19.5104 1.52326 19.1714 1.52326C14.6448 1.52326 10.9702 6.19342 10.9271 11.9754H12.9297ZM10.9267 11.9754H12.9295V20.7413H10.9267V11.9754Z" fill="#C2BB05"/>
</svg>
