<svg width="34" height="32" viewBox="0 0 34 32" fill="none" xmlns="http://www.w3.org/2000/svg">
<path d="M31.1753 14.2183C31.1753 10.4474 29.6773 6.8309 27.0109 4.16445C24.3444 1.498 20.7279 2.84698e-07 16.957 0C13.1861 -2.84698e-07 9.56958 1.498 6.90312 4.16445C4.23667 6.8309 2.73867 10.4474 2.73867 14.2183H4.1605C4.1605 10.8245 5.5087 7.56964 7.90851 5.16984C10.3083 2.77003 13.5632 1.42183 16.957 1.42183C20.3508 1.42183 23.6057 2.77003 26.0055 5.16984C28.4053 7.56965 29.7535 10.8245 29.7535 14.2183H31.1753Z" fill="#099339"/>
<path d="M2.73867 16.8407C2.73867 18.7078 3.10644 20.5567 3.82098 22.2818C4.53551 24.0068 5.58283 25.5742 6.90312 26.8945C8.22342 28.2148 9.79083 29.2621 11.5159 29.9767C13.2409 30.6912 15.0898 31.059 16.957 31.059V29.6371C15.2765 29.6371 13.6125 29.3062 12.06 28.6631C10.5074 28.02 9.09677 27.0774 7.90851 25.8891C6.72024 24.7009 5.77766 23.2902 5.13458 21.7377C4.49149 20.1851 4.1605 18.5211 4.1605 16.8407H2.73867Z" fill="#099339"/>
<path d="M3.73515 10.4485H4.43928C4.99156 10.4485 5.43928 10.8962 5.43928 11.4485V20.7786C5.43928 21.3309 4.99156 21.7786 4.43928 21.7786H3.73515V10.4485Z" fill="#099339"/>
<path d="M4.3289 21.7786L3.66577 21.7786C2.28506 21.7786 1.16577 20.6594 1.16577 19.2786L1.16577 12.9485C1.16577 11.5678 2.28506 10.4485 3.66577 10.4485L4.3289 10.4485L4.3289 21.7786Z" fill="#099339"/>
<path d="M1.25274 19.0847C0.560961 19.0847 0.000163604 18.5239 0.000163665 17.8321L0.000163965 14.3951C0.000164026 13.7033 0.560961 13.1425 1.25274 13.1425L1.25274 19.0847Z" fill="#099339"/>
<path d="M30.1789 21.7786H29.4748C28.9225 21.7786 28.4748 21.3309 28.4748 20.7786V11.4485C28.4748 10.8962 28.9225 10.4485 29.4748 10.4485H30.1789V21.7786Z" fill="#099339"/>
<path d="M29.5852 10.4485L30.2483 10.4485C31.629 10.4485 32.7483 11.5678 32.7483 12.9485L32.7483 19.2786C32.7483 20.6594 31.629 21.7786 30.2483 21.7786L29.5852 21.7786L29.5852 10.4485Z" fill="#099339"/>
<path d="M32.6613 13.1425C33.3531 13.1425 33.9139 13.7033 33.9139 14.395L33.9139 17.8321C33.9139 18.5239 33.3531 19.0847 32.6613 19.0847L32.6613 13.1425Z" fill="#099339"/>
<circle cx="16.976" cy="30.4763" r="1.52366" fill="#099339"/>
<path fill-rule="evenodd" clip-rule="evenodd" d="M16.9762 23.3494C22.0191 23.3494 26.1072 19.2613 26.1072 14.2183C26.1072 9.17538 22.0191 5.08727 16.9762 5.08727C11.9332 5.08727 7.84512 9.17538 7.84512 14.2183C7.84512 19.2613 11.9332 23.3494 16.9762 23.3494ZM16.9769 15.526C17.699 15.526 18.2845 14.9405 18.2845 14.2183C18.2845 13.4961 17.699 12.9107 16.9769 12.9107C16.2547 12.9107 15.6692 13.4961 15.6692 14.2183C15.6692 14.9405 16.2547 15.526 16.9769 15.526ZM13.9322 14.2183C13.9322 14.9405 13.3468 15.526 12.6246 15.526C11.9024 15.526 11.317 14.9405 11.317 14.2183C11.317 13.4961 11.9024 12.9107 12.6246 12.9107C13.3468 12.9107 13.9322 13.4961 13.9322 14.2183ZM21.3288 15.526C22.051 15.526 22.6364 14.9405 22.6364 14.2183C22.6364 13.4961 22.051 12.9107 21.3288 12.9107C20.6066 12.9107 20.0212 13.4961 20.0212 14.2183C20.0212 14.9405 20.6066 15.526 21.3288 15.526Z" fill="#C2BB05"/>
</svg>
