<svg width="35" height="32" viewBox="0 0 35 32" fill="none" xmlns="http://www.w3.org/2000/svg">
<path fill-rule="evenodd" clip-rule="evenodd" d="M0 2C0 0.895431 0.895431 0 2 0H22C23.1046 0 24 0.895431 24 2V2.13201C23.6854 2.13393 23.3711 2.21003 23.0842 2.36031L13.2711 7.50052C12.6223 7.84033 12.2121 8.50692 12.1994 9.23728C12.1411 9.22896 12.0816 9.22466 12.021 9.22466H5.54219C4.85183 9.22466 4.29219 9.7843 4.29219 10.4747C4.29219 11.165 4.85183 11.7247 5.54219 11.7247H12.021C12.0815 11.7247 12.1409 11.7204 12.1991 11.7121V14.7412C12.1409 14.7329 12.0815 14.7286 12.021 14.7286H5.54219C4.85183 14.7286 4.29219 15.2882 4.29219 15.9786C4.29219 16.6689 4.85183 17.2286 5.54219 17.2286H12.021C12.0767 17.2286 12.1316 17.2249 12.1853 17.2179C12.1383 17.9197 12.2575 18.9852 12.7125 20.2325H5.54219C4.85183 20.2325 4.29219 20.7922 4.29219 21.4825C4.29219 22.1729 4.85183 22.7325 5.54219 22.7325H13.0422C13.3358 22.7325 13.6058 22.6313 13.8191 22.4618C14.686 23.8299 15.9677 25.2752 17.8244 26.6255L22.8358 30.2703C23.1525 30.5006 23.52 30.6269 23.8923 30.6492C23.6227 31.4351 22.8773 32 22 32H2C0.89543 32 0 31.1046 0 30V2ZM4.29219 4.97072C4.29219 4.28036 4.85183 3.72072 5.54219 3.72072H13.0422C13.7325 3.72072 14.2922 4.28036 14.2922 4.97072C14.2922 5.66107 13.7325 6.22072 13.0422 6.22072H5.54219C4.85183 6.22072 4.29219 5.66107 4.29219 4.97072ZM4.29219 26.9865C4.29219 26.2961 4.85183 25.7365 5.54219 25.7365H13.0422C13.7325 25.7365 14.2922 26.2961 14.2922 26.9865C14.2922 27.6768 13.7325 28.2365 13.0422 28.2365H5.54219C4.85183 28.2365 4.29219 27.6768 4.29219 26.9865Z" fill="#099339"/>
<path fill-rule="evenodd" clip-rule="evenodd" d="M24.0109 3.5L13.5109 9V17C13.3443 18.5 14.1109 22.3 18.5109 25.5L24.0109 29.5L29.5107 25.5C31.1774 24.3333 34.5107 21 34.5107 17V9L24.0109 3.5ZM31.5006 16.5C31.5006 20.6421 28.1427 24 24.0006 24C19.8585 24 16.5006 20.6421 16.5006 16.5C16.5006 12.3579 19.8585 9 24.0006 9C28.1427 9 31.5006 12.3579 31.5006 16.5ZM28.5013 12.5476C28.1108 12.1571 27.4777 12.1571 27.0871 12.5476L22.7183 16.9165L20.9152 15.1134C20.5247 14.7229 19.8916 14.7229 19.501 15.1134L18.7939 15.8206C18.4034 16.2111 18.4034 16.8442 18.7939 17.2348L21.2818 19.7226C21.289 19.7303 21.2963 19.7378 21.3037 19.7453L22.0108 20.4524C22.2047 20.6463 22.4584 20.7439 22.7126 20.7452C22.9705 20.7468 23.2289 20.6492 23.4257 20.4524L24.1328 19.7453C24.1404 19.7378 24.1477 19.7302 24.1549 19.7225L29.2085 14.6689C29.599 14.2784 29.599 13.6453 29.2085 13.2547L28.5013 12.5476Z" fill="#C2BB05"/>
</svg>
