<svg width="204" height="228" viewBox="0 0 204 228" fill="none" xmlns="http://www.w3.org/2000/svg">
<path d="M102 227.699C158.333 227.699 204 224.57 204 220.71C204 216.85 158.333 213.721 102 213.721C45.667 213.721 0 216.85 0 220.71C0 224.57 45.667 227.699 102 227.699Z" fill="#F5F5F5"/>
<path d="M41.6951 158.195H148.192V213.176C148.192 213.881 148.053 214.579 147.783 215.229C147.514 215.88 147.118 216.472 146.62 216.97C146.122 217.468 145.531 217.863 144.88 218.133C144.229 218.402 143.531 218.541 142.827 218.541H47.0597C46.3552 218.541 45.6576 218.402 45.0067 218.133C44.3559 217.863 43.7645 217.468 43.2663 216.97C42.7682 216.472 42.373 215.88 42.1034 215.229C41.8338 214.579 41.6951 213.881 41.6951 213.176V158.195Z" fill="#DEE2E6"/>
<path d="M41.6952 158.195H117.057L107.787 146.329C106.767 145.028 104.246 143.975 102.149 143.975H34.3738C32.2843 143.975 31.4054 145.028 32.4252 146.329L41.6952 158.195Z" fill="#DEE2E6"/>
<path opacity="0.2" d="M41.6952 158.195H117.057L107.787 146.329C106.767 145.028 104.246 143.975 102.149 143.975H34.3738C32.2843 143.975 31.4054 145.028 32.4252 146.329L41.6952 158.195Z" fill="black"/>
<path d="M148.192 158.196H72.8381L82.1081 150.46C83.1279 149.631 85.6485 148.926 87.7463 148.926H155.513C157.611 148.926 158.481 149.614 157.462 150.46L148.192 158.196Z" fill="#DEE2E6"/>
<path opacity="0.2" d="M72.8381 158.195H148.192V213.176C148.192 213.881 148.053 214.579 147.783 215.229C147.514 215.88 147.118 216.472 146.62 216.97C146.122 217.468 145.531 217.863 144.88 218.133C144.229 218.402 143.531 218.541 142.827 218.541H78.2028C77.4983 218.541 76.8007 218.402 76.1498 218.133C75.4989 217.863 74.9075 217.468 74.4094 216.97C73.9112 216.472 73.5161 215.88 73.2465 215.229C72.9769 214.579 72.8381 213.881 72.8381 213.176V158.195Z" fill="white"/>
<path opacity="0.5" d="M51.0479 158.195V195.905L53.6514 193.849L55.4838 195.905L57.0758 193.617L58.7092 195.905L60.9811 194.189L63.4852 195.905V158.195H51.0479Z" fill="white"/>
<path d="M67.9047 75.9347L54.5139 64.6914" stroke="#DEE2E6" stroke-miterlimit="10"/>
<path d="M74.8448 81.7628L70.7654 78.3301" stroke="#DEE2E6" stroke-miterlimit="10"/>
<path d="M114.959 105.295L159.136 50.0816L100.316 0.697266L61.3461 45.4135L55.542 56.5988C55.2539 56.9163 55.0343 57.2899 54.8971 57.6961C54.7599 58.1023 54.7079 58.5325 54.7445 58.9597C54.7811 59.387 54.9054 59.8021 55.1097 60.1791C55.314 60.5561 55.5938 60.8869 55.9317 61.1508L108.998 105.71C109.86 106.405 110.954 106.748 112.06 106.672C113.165 106.595 114.201 106.103 114.959 105.295Z" fill="#DEE2E6"/>
<path opacity="0.5" d="M84.6618 64.5742L78.3022 74.8143L80.8643 75.3698L81.7349 77.7412L83.4347 77.8407L84.2224 79.8721L86.3036 80.4774L87.9038 83.0229L94.2634 72.7828L84.6618 64.5742Z" fill="white"/>
<path opacity="0.1" d="M157.213 48.4648L117.596 92.6586L61.3213 45.4135L100.316 0.697266L157.213 48.4648Z" fill="black"/>
<path d="M157.213 48.4648L117.596 92.6587L133.997 93.8693L173 49.153L157.213 48.4648Z" fill="#DEE2E6"/>
<path opacity="0.3" d="M157.213 48.4648L117.596 92.6587L133.997 93.8693L173 49.153L157.213 48.4648Z" fill="black"/>
<path d="M84.5376 0L44.9124 44.2022L61.3213 45.4127L100.316 0.696498L84.5376 0Z" fill="#DEE2E6"/>
<path opacity="0.4" d="M84.5376 0L44.9124 44.2022L61.3213 45.4127L100.316 0.696498L84.5376 0Z" fill="black"/>
<path opacity="0.1" d="M145.016 62.0712L157.213 48.4648L100.317 0.697266L93.0366 18.2421L145.016 62.0712Z" fill="black"/>
<path opacity="0.2" d="M61.3213 45.4135L100.316 0.697266L93.0364 18.2421L65.5748 48.9871L61.3213 45.4135Z" fill="black"/>
</svg>
