<svg width="32" height="32" viewBox="0 0 32 32" fill="none" xmlns="http://www.w3.org/2000/svg">
<circle cx="16" cy="16" r="16" fill="#2F3F4C"/>
<circle cx="15.75" cy="10.25" r="5.75" fill="white"/>
<ellipse cx="16" cy="23" rx="9.5" ry="5" fill="white"/>
<path d="M15.75 4.5C14.225 4.5 12.7625 5.1058 11.6841 6.18414C10.6058 7.26247 10 8.725 10 10.25C10 11.775 10.6058 13.2375 11.6841 14.3159C12.7625 15.3942 14.225 16 15.75 16L15.75 10.25V4.5Z" fill="#FFFDBF"/>
<path d="M16 28C13.4804 28 11.0641 27.4732 9.28249 26.5355C7.50089 25.5979 6.5 24.3261 6.5 23C6.5 21.6739 7.50089 20.4021 9.28249 19.4645C11.0641 18.5268 13.4804 18 16 18V23V28Z" fill="#FFFDBF"/>
</svg>
