<svg width="16" height="14" viewBox="0 0 16 14" fill="none" xmlns="http://www.w3.org/2000/svg">
<path fill-rule="evenodd" clip-rule="evenodd" d="M0.916687 2.33334C0.916687 1.22877 1.81212 0.333344 2.91669 0.333344H8.91669C9.67883 0.333344 10.3414 0.75965 10.679 1.38682C10.4427 1.41569 10.2104 1.48687 9.99375 1.60037L7.07162 3.13101C6.62389 3.36553 6.28974 3.75572 6.12149 4.21511C6.06098 4.1905 5.99479 4.17695 5.92544 4.17695H3.22593C2.93828 4.17695 2.7051 4.41013 2.7051 4.69778C2.7051 4.98543 2.93828 5.21862 3.22593 5.21862H5.92544C5.95063 5.21862 5.9754 5.21683 5.99963 5.21337V6.4755C5.9754 6.47204 5.95063 6.47026 5.92544 6.47026H3.22593C2.93828 6.47026 2.7051 6.70344 2.7051 6.99109C2.7051 7.27874 2.93828 7.51192 3.22593 7.51192H5.92544C5.94865 7.51192 5.97151 7.51041 5.99391 7.50746C5.9743 7.79988 6.02399 8.24385 6.21356 8.76356H3.22593C2.93828 8.76356 2.7051 8.99675 2.7051 9.2844C2.7051 9.57204 2.93828 9.80523 3.22593 9.80523H6.35093C6.47328 9.80523 6.58577 9.76304 6.67466 9.69243C7.03586 10.2625 7.56988 10.8647 8.34351 11.4273L9.74541 12.4469C9.99504 12.6284 10.2762 12.7454 10.5664 12.7977C10.2059 13.3225 9.60151 13.6667 8.91669 13.6667H2.91669C1.81212 13.6667 0.916687 12.7712 0.916687 11.6667V2.33334ZM2.7051 2.40448C2.7051 2.11683 2.93828 1.88364 3.22593 1.88364H6.35093C6.63858 1.88364 6.87176 2.11683 6.87176 2.40448C6.87176 2.69212 6.63858 2.92531 6.35093 2.92531H3.22593C2.93828 2.92531 2.7051 2.69212 2.7051 2.40448ZM2.7051 11.5777C2.7051 11.2901 2.93828 11.0569 3.22593 11.0569H6.35093C6.63858 11.0569 6.87176 11.2901 6.87176 11.5777C6.87176 11.8654 6.63858 12.0985 6.35093 12.0985H3.22593C2.93828 12.0985 2.7051 11.8654 2.7051 11.5777Z" fill="#FFF613" fill-opacity="0.6"/>
<path fill-rule="evenodd" clip-rule="evenodd" d="M10.9212 1.79169L6.54622 4.08335V7.41669C6.47678 8.04169 6.79622 9.62502 8.62955 10.9584L10.9212 12.625L13.2128 10.9584C13.9073 10.4722 15.2961 9.08335 15.2961 7.41669V4.08335L10.9212 1.79169ZM14.0419 7.20835C14.0419 8.93424 12.6428 10.3334 10.9169 10.3334C9.19102 10.3334 7.79191 8.93424 7.79191 7.20835C7.79191 5.48246 9.19102 4.08335 10.9169 4.08335C12.6428 4.08335 14.0419 5.48246 14.0419 7.20835ZM12.9395 5.70885C12.6955 5.46477 12.2997 5.46477 12.0557 5.70885L10.3826 7.38189L9.77867 6.77794C9.53459 6.53386 9.13886 6.53386 8.89478 6.77794C8.65071 7.02201 8.65071 7.41774 8.89478 7.66182L9.92926 8.6963L9.94053 8.70786C10.0617 8.82898 10.2201 8.88999 10.3789 8.8909C10.5401 8.8919 10.7017 8.83089 10.8247 8.70786L10.836 8.69622L12.9395 6.59273C13.1836 6.34865 13.1836 5.95292 12.9395 5.70885Z" fill="#FFF613" fill-opacity="0.6"/>
</svg>
