<svg xmlns="http://www.w3.org/2000/svg"><symbol viewBox="0 0 16 14" id="icon-contact"><title>contact</title> <path d="M13.9064 6.25763C13.9064 4.68641 13.2822 3.17954 12.1712 2.06852C11.0602 0.957494 9.55333 0.333328 7.9821 0.333328C6.41088 0.333328 4.90401 0.957494 3.79299 2.06852C2.68197 3.17954 2.0578 4.68641 2.0578 6.25763H2.65023C2.65023 4.84353 3.21198 3.48735 4.2119 2.48743C5.21182 1.48751 6.568 0.925758 7.9821 0.925758C9.3962 0.925758 10.7524 1.48751 11.7523 2.48743C12.7522 3.48735 13.314 4.84353 13.314 6.25763H13.9064Z" fill="#FFF613" fill-opacity="0.6"/> <path d="M2.0578 7.35027C2.0578 8.12826 2.21104 8.89863 2.50876 9.6174C2.80648 10.3362 3.24287 10.9893 3.79299 11.5394C4.34311 12.0895 4.9962 12.5259 5.71497 12.8236C6.43374 13.1213 7.20411 13.2746 7.9821 13.2746V12.6821C7.28191 12.6821 6.58858 12.5442 5.94168 12.2763C5.29479 12.0083 4.70701 11.6156 4.2119 11.1205C3.71679 10.6254 3.32405 10.0376 3.0561 9.39069C2.78814 8.74379 2.65023 8.05046 2.65023 7.35027H2.0578Z" fill="#FFF613" fill-opacity="0.6"/> <path d="M2.47302 4.68687C2.86517 4.68687 3.18307 5.00478 3.18307 5.39693V8.69771C3.18307 9.08986 2.86517 9.40776 2.47302 9.40776V4.68687Z" fill="#FFF613" fill-opacity="0.6"/> <path d="M2.7204 9.40776C1.9925 9.40776 1.40243 8.81768 1.40243 8.08979L1.40243 6.00484C1.40243 5.27695 1.9925 4.68687 2.7204 4.68687L2.7204 9.40776Z" fill="#FFF613" fill-opacity="0.6"/> <path d="M1.43866 8.28528C1.15042 8.28528 0.916753 8.05161 0.916753 7.76337L0.916753 6.33127C0.916753 6.04303 1.15042 5.80936 1.43866 5.80936L1.43866 8.28528Z" fill="#FFF613" fill-opacity="0.6"/> <path d="M13.4912 9.40776C13.0991 9.40776 12.7812 9.08986 12.7812 8.69771V5.39693C12.7812 5.00477 13.0991 4.68687 13.4912 4.68687V9.40776Z" fill="#FFF613" fill-opacity="0.6"/> <path d="M13.2438 4.68687C13.9717 4.68687 14.5618 5.27695 14.5618 6.00485L14.5618 8.08979C14.5618 8.81769 13.9717 9.40776 13.2438 9.40776L13.2438 4.68687Z" fill="#FFF613" fill-opacity="0.6"/> <path d="M14.5256 5.80936C14.8138 5.80936 15.0475 6.04302 15.0475 6.33127L15.0475 7.76336C15.0475 8.0516 14.8138 8.28527 14.5256 8.28527L14.5256 5.80936Z" fill="#FFF613" fill-opacity="0.6"/> <circle cx="7.99002" cy="13.0318" r="0.634857" fill="#FFF613" fill-opacity="0.6"/> <path fill-rule="evenodd" clip-rule="evenodd" d="M7.99009 10.0622C10.0913 10.0622 11.7947 8.35885 11.7947 6.25762C11.7947 4.1564 10.0913 2.45302 7.99009 2.45302C5.88887 2.45302 4.18549 4.1564 4.18549 6.25762C4.18549 8.35885 5.88887 10.0622 7.99009 10.0622ZM7.99038 6.80247C8.29129 6.80247 8.53522 6.55853 8.53522 6.25762C8.53522 5.95672 8.29129 5.71278 7.99038 5.71278C7.68947 5.71278 7.44554 5.95672 7.44554 6.25762C7.44554 6.55853 7.68947 6.80247 7.99038 6.80247ZM6.72179 6.25762C6.72179 6.55853 6.47785 6.80247 6.17694 6.80247C5.87603 6.80247 5.6321 6.55853 5.6321 6.25762C5.6321 5.95672 5.87603 5.71278 6.17694 5.71278C6.47785 5.71278 6.72179 5.95672 6.72179 6.25762ZM9.80369 6.80247C10.1046 6.80247 10.3485 6.55853 10.3485 6.25762C10.3485 5.95672 10.1046 5.71278 9.80369 5.71278C9.50279 5.71278 9.25885 5.95672 9.25885 6.25762C9.25885 6.55853 9.50279 6.80247 9.80369 6.80247Z" fill="#FFF613" fill-opacity="0.6"/> </symbol><symbol viewBox="0 0 16 16" id="icon-dashboard"><title>dashboard</title> <path d="M0.5 8.83333H7.16667V0.5H0.5V8.83333ZM0.5 15.5H7.16667V10.5H0.5V15.5ZM8.83333 15.5H15.5V7.16667H8.83333V15.5ZM8.83333 0.5V5.5H15.5V0.5H8.83333Z" fill="currentColor"/> </symbol><symbol viewBox="0 0 16 14" id="icon-info"><title>info</title> <path fill-rule="evenodd" clip-rule="evenodd" d="M13.0508 6.60873C13.0508 7.17563 12.9756 7.72497 12.8347 8.24733L10.2184 7.52727C9.46988 7.32126 8.85227 8.13287 9.25037 8.79941L10.8119 11.4139C9.72072 12.3314 8.3126 12.8841 6.77539 12.8841C3.30959 12.8841 0.5 10.0745 0.5 6.60873C0.5 3.14293 3.30959 0.333344 6.77539 0.333344C10.2412 0.333344 13.0508 3.14293 13.0508 6.60873ZM10.047 8.15013L12.634 8.86214C12.3302 9.65164 11.8713 10.3642 11.2948 10.9626L9.80499 8.46816C9.70547 8.30153 9.85987 8.09862 10.047 8.15013ZM6.22762 4.21073C6.36544 4.34165 6.54805 4.40711 6.77544 4.40711C7.00284 4.40711 7.18545 4.34165 7.32326 4.21073C7.46108 4.07291 7.52999 3.90064 7.52999 3.69391C7.52999 3.49408 7.46108 3.3287 7.32326 3.19778C7.18545 3.06685 7.00284 3.00139 6.77544 3.00139C6.54805 3.00139 6.36544 3.06685 6.22762 3.19778C6.08981 3.32181 6.0209 3.48719 6.0209 3.69391C6.0209 3.90064 6.08981 4.07291 6.22762 4.21073ZM5.95888 9.53389H5.31803V10.2161H8.23285V9.53389H7.592C7.51621 9.53389 7.45419 9.51322 7.40595 9.47187C7.36461 9.42364 7.34394 9.36162 7.34394 9.28582V5.2857H5.31803V5.96789H5.95888C6.03468 5.96789 6.09325 5.992 6.1346 6.04024C6.18283 6.08159 6.20695 6.14016 6.20695 6.21596V9.28582C6.20695 9.36162 6.18283 9.42364 6.1346 9.47187C6.09325 9.51322 6.03468 9.53389 5.95888 9.53389Z" fill="#FFF613" fill-opacity="0.6"/> <path d="M12.847 13.5616L9.80492 8.46815C9.7054 8.30152 9.8598 8.09862 10.0469 8.15012L15.5778 9.67233C15.7618 9.72298 15.7938 9.97027 15.6288 10.0661L13.6878 11.1938C13.6317 11.2263 13.5934 11.2824 13.5832 11.3463L13.2446 13.4849C13.2131 13.6837 12.9502 13.7344 12.847 13.5616Z" fill="#FFF613" fill-opacity="0.6"/> </symbol><symbol viewBox="0 0 18 16" id="icon-logout"><title>logout</title> <path d="M13.1667 3.83333L11.9917 5.00833L14.1417 7.16667H5.66669V8.83333H14.1417L11.9917 10.9833L13.1667 12.1667L17.3334 8L13.1667 3.83333ZM2.33335 2.16667H9.00002V0.5H2.33335C1.41669 0.5 0.666687 1.25 0.666687 2.16667V13.8333C0.666687 14.75 1.41669 15.5 2.33335 15.5H9.00002V13.8333H2.33335V2.16667Z" fill="#FFF613" fill-opacity="0.6"/> </symbol><symbol viewBox="0 0 16 14" id="icon-record"><title>record</title> <path fill-rule="evenodd" clip-rule="evenodd" d="M0.916687 2.33334C0.916687 1.22877 1.81212 0.333344 2.91669 0.333344H8.91669C9.67883 0.333344 10.3414 0.75965 10.679 1.38682C10.4427 1.41569 10.2104 1.48687 9.99375 1.60037L7.07162 3.13101C6.62389 3.36553 6.28974 3.75572 6.12149 4.21511C6.06098 4.1905 5.99479 4.17695 5.92544 4.17695H3.22593C2.93828 4.17695 2.7051 4.41013 2.7051 4.69778C2.7051 4.98543 2.93828 5.21862 3.22593 5.21862H5.92544C5.95063 5.21862 5.9754 5.21683 5.99963 5.21337V6.4755C5.9754 6.47204 5.95063 6.47026 5.92544 6.47026H3.22593C2.93828 6.47026 2.7051 6.70344 2.7051 6.99109C2.7051 7.27874 2.93828 7.51192 3.22593 7.51192H5.92544C5.94865 7.51192 5.97151 7.51041 5.99391 7.50746C5.9743 7.79988 6.02399 8.24385 6.21356 8.76356H3.22593C2.93828 8.76356 2.7051 8.99675 2.7051 9.2844C2.7051 9.57204 2.93828 9.80523 3.22593 9.80523H6.35093C6.47328 9.80523 6.58577 9.76304 6.67466 9.69243C7.03586 10.2625 7.56988 10.8647 8.34351 11.4273L9.74541 12.4469C9.99504 12.6284 10.2762 12.7454 10.5664 12.7977C10.2059 13.3225 9.60151 13.6667 8.91669 13.6667H2.91669C1.81212 13.6667 0.916687 12.7712 0.916687 11.6667V2.33334ZM2.7051 2.40448C2.7051 2.11683 2.93828 1.88364 3.22593 1.88364H6.35093C6.63858 1.88364 6.87176 2.11683 6.87176 2.40448C6.87176 2.69212 6.63858 2.92531 6.35093 2.92531H3.22593C2.93828 2.92531 2.7051 2.69212 2.7051 2.40448ZM2.7051 11.5777C2.7051 11.2901 2.93828 11.0569 3.22593 11.0569H6.35093C6.63858 11.0569 6.87176 11.2901 6.87176 11.5777C6.87176 11.8654 6.63858 12.0985 6.35093 12.0985H3.22593C2.93828 12.0985 2.7051 11.8654 2.7051 11.5777Z" fill="#FFF613" fill-opacity="0.6"/> <path fill-rule="evenodd" clip-rule="evenodd" d="M10.9212 1.79169L6.54622 4.08335V7.41669C6.47678 8.04169 6.79622 9.62502 8.62955 10.9584L10.9212 12.625L13.2128 10.9584C13.9073 10.4722 15.2961 9.08335 15.2961 7.41669V4.08335L10.9212 1.79169ZM14.0419 7.20835C14.0419 8.93424 12.6428 10.3334 10.9169 10.3334C9.19102 10.3334 7.79191 8.93424 7.79191 7.20835C7.79191 5.48246 9.19102 4.08335 10.9169 4.08335C12.6428 4.08335 14.0419 5.48246 14.0419 7.20835ZM12.9395 5.70885C12.6955 5.46477 12.2997 5.46477 12.0557 5.70885L10.3826 7.38189L9.77867 6.77794C9.53459 6.53386 9.13886 6.53386 8.89478 6.77794C8.65071 7.02201 8.65071 7.41774 8.89478 7.66182L9.92926 8.6963L9.94053 8.70786C10.0617 8.82898 10.2201 8.88999 10.3789 8.8909C10.5401 8.8919 10.7017 8.83089 10.8247 8.70786L10.836 8.69622L12.9395 6.59273C13.1836 6.34865 13.1836 5.95292 12.9395 5.70885Z" fill="#FFF613" fill-opacity="0.6"/> </symbol><symbol viewBox="0 0 18 14" id="icon-response"><title>response</title> <path fill-rule="evenodd" clip-rule="evenodd" d="M0.699868 1.05334C0.778104 0.895122 0.969791 0.830281 1.12801 0.908516L3.09095 1.87913C3.24917 1.95736 3.31401 2.14905 3.23578 2.30727C3.15754 2.46549 2.96585 2.53034 2.80763 2.4521L0.844696 1.48149C0.686474 1.40325 0.621632 1.21157 0.699868 1.05334Z" fill="#FFF613" fill-opacity="0.6"/> <path fill-rule="evenodd" clip-rule="evenodd" d="M17.0451 1.05334C16.9669 0.895122 16.7752 0.830281 16.617 0.908516L14.654 1.87913C14.4958 1.95736 14.431 2.14905 14.5092 2.30727C14.5875 2.46549 14.7791 2.53034 14.9374 2.4521L16.9003 1.48149C17.0585 1.40325 17.1234 1.21157 17.0451 1.05334Z" fill="#FFF613" fill-opacity="0.6"/> <path fill-rule="evenodd" clip-rule="evenodd" d="M0.699868 7.40204C0.778104 7.56026 0.969791 7.6251 1.12801 7.54687L3.09095 6.57626C3.24917 6.49802 3.31401 6.30633 3.23578 6.14811C3.15754 5.98989 2.96585 5.92505 2.80763 6.00328L0.844696 6.97389C0.686474 7.05213 0.621632 7.24382 0.699868 7.40204Z" fill="#FFF613" fill-opacity="0.6"/> <path fill-rule="evenodd" clip-rule="evenodd" d="M17.0451 7.40204C16.9669 7.56026 16.7752 7.6251 16.617 7.54687L14.654 6.57626C14.4958 6.49802 14.431 6.30633 14.5092 6.14811C14.5875 5.98989 14.7791 5.92505 14.9374 6.00328L16.9003 6.97389C17.0585 7.05213 17.1234 7.24382 17.0451 7.40204Z" fill="#FFF613" fill-opacity="0.6"/> <path fill-rule="evenodd" clip-rule="evenodd" d="M0.666687 4.22769C0.666687 4.05118 0.809775 3.9081 0.986283 3.9081H2.94922C3.12573 3.9081 3.26882 4.05118 3.26882 4.22769C3.26882 4.4042 3.12573 4.54729 2.94922 4.54729H0.986283C0.809775 4.54729 0.666687 4.4042 0.666687 4.22769Z" fill="#FFF613" fill-opacity="0.6"/> <path fill-rule="evenodd" clip-rule="evenodd" d="M17.0779 4.22769C17.0779 4.05118 16.9348 3.9081 16.7583 3.9081H14.7953C14.6188 3.9081 14.4758 4.05118 14.4758 4.22769C14.4758 4.4042 14.6188 4.54729 14.7953 4.54729H16.7583C16.9348 4.54729 17.0779 4.4042 17.0779 4.22769Z" fill="#FFF613" fill-opacity="0.6"/> <path d="M3.15649 13.25C3.15649 11.98 4.18604 10.9504 5.45605 10.9504H12.2878C13.5578 10.9504 14.5874 11.98 14.5874 13.25H3.15649Z" fill="#FFF613" fill-opacity="0.6"/> <path fill-rule="evenodd" clip-rule="evenodd" d="M13.2701 5.1479L13.27 5.18612V10.3331H4.47418V5.10507H4.47455C4.49754 2.6959 6.45765 0.75 8.87225 0.75C11.2868 0.75 13.247 2.6959 13.2699 5.10507H13.27V5.10968L13.2701 5.1479ZM6.05404 5.73976C6.07066 3.51097 7.38229 1.67868 9.07198 1.4168C8.93523 1.3956 8.796 1.38469 8.65478 1.38469C6.76869 1.38469 5.2376 3.33059 5.21964 5.73976H6.05404ZM5.21948 5.73976H6.05397V9.39219H5.21948V5.73976Z" fill="#FFF613" fill-opacity="0.6"/> </symbol><symbol viewBox="0 0 20 20" id="icon-settings"><title>settings</title> <path d="M15.95 10.7833C15.9833 10.5333 16 10.275 16 10C16 9.73333 15.9833 9.46667 15.9417 9.21667L17.6333 7.9C17.7833 7.78333 17.825 7.55833 17.7333 7.39167L16.1333 4.625C16.0333 4.44167 15.825 4.38333 15.6417 4.44167L13.65 5.24167C13.2333 4.925 12.7917 4.65833 12.3 4.45833L12 2.34167C11.9667 2.14167 11.8 2 11.6 2H8.39999C8.19999 2 8.04166 2.14167 8.00832 2.34167L7.70832 4.45833C7.21666 4.65833 6.76666 4.93333 6.35832 5.24167L4.36666 4.44167C4.18332 4.375 3.97499 4.44167 3.87499 4.625L2.28332 7.39167C2.18332 7.56667 2.21666 7.78333 2.38332 7.9L4.07499 9.21667C4.03332 9.46667 3.99999 9.74167 3.99999 10C3.99999 10.2583 4.01666 10.5333 4.05832 10.7833L2.36666 12.1C2.21666 12.2167 2.17499 12.4417 2.26666 12.6083L3.86666 15.375C3.96666 15.5583 4.17499 15.6167 4.35832 15.5583L6.34999 14.7583C6.76666 15.075 7.20832 15.3417 7.69999 15.5417L7.99999 17.6583C8.04166 17.8583 8.19999 18 8.39999 18H11.6C11.8 18 11.9667 17.8583 11.9917 17.6583L12.2917 15.5417C12.7833 15.3417 13.2333 15.075 13.6417 14.7583L15.6333 15.5583C15.8167 15.625 16.025 15.5583 16.125 15.375L17.725 12.6083C17.825 12.425 17.7833 12.2167 17.625 12.1L15.95 10.7833ZM9.99999 13C8.34999 13 6.99999 11.65 6.99999 10C6.99999 8.35 8.34999 7 9.99999 7C11.65 7 13 8.35 13 10C13 11.65 11.65 13 9.99999 13Z" fill="#FFF613" fill-opacity="0.6"/> </symbol></svg>
